G04 #@! TF.FileFunction,Legend,Bot*
%FSLAX46Y46*%
G04 Gerber Fmt 4.6, Leading zero omitted, Abs format (unit mm)*
G04 Created by KiCad (PCBNEW 4.0.7) date 07/15/18 12:38:24*
%MOMM*%
%LPD*%
G01*
G04 APERTURE LIST*
%ADD10C,0.100000*%
%ADD11C,0.300000*%
G04 APERTURE END LIST*
D10*
D11*
X153048695Y-102894180D02*
X152334409Y-102894180D01*
X153191552Y-103322751D02*
X152691552Y-101822751D01*
X152191552Y-103322751D01*
X151048695Y-102322751D02*
X151048695Y-103322751D01*
X151691552Y-102322751D02*
X151691552Y-103108466D01*
X151620124Y-103251323D01*
X151477266Y-103322751D01*
X151262981Y-103322751D01*
X151120124Y-103251323D01*
X151048695Y-103179894D01*
X149691552Y-103322751D02*
X149691552Y-101822751D01*
X149691552Y-103251323D02*
X149834409Y-103322751D01*
X150120123Y-103322751D01*
X150262981Y-103251323D01*
X150334409Y-103179894D01*
X150405838Y-103037037D01*
X150405838Y-102608466D01*
X150334409Y-102465609D01*
X150262981Y-102394180D01*
X150120123Y-102322751D01*
X149834409Y-102322751D01*
X149691552Y-102394180D01*
X148977266Y-103322751D02*
X148977266Y-102322751D01*
X148977266Y-101822751D02*
X149048695Y-101894180D01*
X148977266Y-101965609D01*
X148905838Y-101894180D01*
X148977266Y-101822751D01*
X148977266Y-101965609D01*
X148048694Y-103322751D02*
X148191552Y-103251323D01*
X148262980Y-103179894D01*
X148334409Y-103037037D01*
X148334409Y-102608466D01*
X148262980Y-102465609D01*
X148191552Y-102394180D01*
X148048694Y-102322751D01*
X147834409Y-102322751D01*
X147691552Y-102394180D01*
X147620123Y-102465609D01*
X147548694Y-102608466D01*
X147548694Y-103037037D01*
X147620123Y-103179894D01*
X147691552Y-103251323D01*
X147834409Y-103322751D01*
X148048694Y-103322751D01*
X145048694Y-103322751D02*
X145762980Y-103322751D01*
X145762980Y-101822751D01*
X144548694Y-103322751D02*
X144548694Y-102322751D01*
X144548694Y-101822751D02*
X144620123Y-101894180D01*
X144548694Y-101965609D01*
X144477266Y-101894180D01*
X144548694Y-101822751D01*
X144548694Y-101965609D01*
X143834408Y-102322751D02*
X143834408Y-103322751D01*
X143834408Y-102465609D02*
X143762980Y-102394180D01*
X143620122Y-102322751D01*
X143405837Y-102322751D01*
X143262980Y-102394180D01*
X143191551Y-102537037D01*
X143191551Y-103322751D01*
X141905837Y-103251323D02*
X142048694Y-103322751D01*
X142334408Y-103322751D01*
X142477265Y-103251323D01*
X142548694Y-103108466D01*
X142548694Y-102537037D01*
X142477265Y-102394180D01*
X142334408Y-102322751D01*
X142048694Y-102322751D01*
X141905837Y-102394180D01*
X141834408Y-102537037D01*
X141834408Y-102679894D01*
X142548694Y-102822751D01*
X140262980Y-102322751D02*
X139691551Y-102322751D01*
X140048694Y-101822751D02*
X140048694Y-103108466D01*
X139977266Y-103251323D01*
X139834408Y-103322751D01*
X139691551Y-103322751D01*
X138977265Y-103322751D02*
X139120123Y-103251323D01*
X139191551Y-103179894D01*
X139262980Y-103037037D01*
X139262980Y-102608466D01*
X139191551Y-102465609D01*
X139120123Y-102394180D01*
X138977265Y-102322751D01*
X138762980Y-102322751D01*
X138620123Y-102394180D01*
X138548694Y-102465609D01*
X138477265Y-102608466D01*
X138477265Y-103037037D01*
X138548694Y-103179894D01*
X138620123Y-103251323D01*
X138762980Y-103322751D01*
X138977265Y-103322751D01*
X155941551Y-104372751D02*
X155084408Y-104372751D01*
X155512979Y-105872751D02*
X155512979Y-104372751D01*
X154798694Y-104372751D02*
X153941551Y-104372751D01*
X154370122Y-105872751D02*
X154370122Y-104372751D01*
X152727265Y-105872751D02*
X153441551Y-105872751D01*
X153441551Y-104372751D01*
X150655837Y-106444180D02*
X150727265Y-106372751D01*
X150870122Y-106158466D01*
X150941551Y-106015609D01*
X151012980Y-105801323D01*
X151084408Y-105444180D01*
X151084408Y-105158466D01*
X151012980Y-104801323D01*
X150941551Y-104587037D01*
X150870122Y-104444180D01*
X150727265Y-104229894D01*
X150655837Y-104158466D01*
X150155837Y-105801323D02*
X150012980Y-105872751D01*
X149727265Y-105872751D01*
X149584408Y-105801323D01*
X149512980Y-105658466D01*
X149512980Y-105587037D01*
X149584408Y-105444180D01*
X149727265Y-105372751D01*
X149941551Y-105372751D01*
X150084408Y-105301323D01*
X150155837Y-105158466D01*
X150155837Y-105087037D01*
X150084408Y-104944180D01*
X149941551Y-104872751D01*
X149727265Y-104872751D01*
X149584408Y-104944180D01*
X148227265Y-104872751D02*
X148227265Y-106372751D01*
X148227265Y-105801323D02*
X148370122Y-105872751D01*
X148655836Y-105872751D01*
X148798694Y-105801323D01*
X148870122Y-105729894D01*
X148941551Y-105587037D01*
X148941551Y-105158466D01*
X148870122Y-105015609D01*
X148798694Y-104944180D01*
X148655836Y-104872751D01*
X148370122Y-104872751D01*
X148227265Y-104944180D01*
X146870122Y-104872751D02*
X146870122Y-105872751D01*
X147512979Y-104872751D02*
X147512979Y-105658466D01*
X147441551Y-105801323D01*
X147298693Y-105872751D01*
X147084408Y-105872751D01*
X146941551Y-105801323D01*
X146870122Y-105729894D01*
X145512979Y-105872751D02*
X145512979Y-105087037D01*
X145584408Y-104944180D01*
X145727265Y-104872751D01*
X146012979Y-104872751D01*
X146155836Y-104944180D01*
X145512979Y-105801323D02*
X145655836Y-105872751D01*
X146012979Y-105872751D01*
X146155836Y-105801323D01*
X146227265Y-105658466D01*
X146227265Y-105515609D01*
X146155836Y-105372751D01*
X146012979Y-105301323D01*
X145655836Y-105301323D01*
X145512979Y-105229894D01*
X144798693Y-105872751D02*
X144798693Y-104872751D01*
X144798693Y-105158466D02*
X144727265Y-105015609D01*
X144655836Y-104944180D01*
X144512979Y-104872751D01*
X144370122Y-104872751D01*
X143298694Y-105801323D02*
X143441551Y-105872751D01*
X143727265Y-105872751D01*
X143870122Y-105801323D01*
X143941551Y-105658466D01*
X143941551Y-105087037D01*
X143870122Y-104944180D01*
X143727265Y-104872751D01*
X143441551Y-104872751D01*
X143298694Y-104944180D01*
X143227265Y-105087037D01*
X143227265Y-105229894D01*
X143941551Y-105372751D01*
X141584408Y-104872751D02*
X141298694Y-105872751D01*
X141012980Y-105158466D01*
X140727265Y-105872751D01*
X140441551Y-104872751D01*
X139227265Y-105872751D02*
X139227265Y-105087037D01*
X139298694Y-104944180D01*
X139441551Y-104872751D01*
X139727265Y-104872751D01*
X139870122Y-104944180D01*
X139227265Y-105801323D02*
X139370122Y-105872751D01*
X139727265Y-105872751D01*
X139870122Y-105801323D01*
X139941551Y-105658466D01*
X139941551Y-105515609D01*
X139870122Y-105372751D01*
X139727265Y-105301323D01*
X139370122Y-105301323D01*
X139227265Y-105229894D01*
X138655836Y-104872751D02*
X138298693Y-105872751D01*
X137941551Y-104872751D01*
X136798694Y-105801323D02*
X136941551Y-105872751D01*
X137227265Y-105872751D01*
X137370122Y-105801323D01*
X137441551Y-105658466D01*
X137441551Y-105087037D01*
X137370122Y-104944180D01*
X137227265Y-104872751D01*
X136941551Y-104872751D01*
X136798694Y-104944180D01*
X136727265Y-105087037D01*
X136727265Y-105229894D01*
X137441551Y-105372751D01*
X136227265Y-106444180D02*
X136155837Y-106372751D01*
X136012980Y-106158466D01*
X135941551Y-106015609D01*
X135870122Y-105801323D01*
X135798694Y-105444180D01*
X135798694Y-105158466D01*
X135870122Y-104801323D01*
X135941551Y-104587037D01*
X136012980Y-104444180D01*
X136155837Y-104229894D01*
X136227265Y-104158466D01*
X150370122Y-108422751D02*
X150370122Y-107422751D01*
X150370122Y-106922751D02*
X150441551Y-106994180D01*
X150370122Y-107065609D01*
X150298694Y-106994180D01*
X150370122Y-106922751D01*
X150370122Y-107065609D01*
X149655836Y-107422751D02*
X149655836Y-108422751D01*
X149655836Y-107565609D02*
X149584408Y-107494180D01*
X149441550Y-107422751D01*
X149227265Y-107422751D01*
X149084408Y-107494180D01*
X149012979Y-107637037D01*
X149012979Y-108422751D01*
X148512979Y-107422751D02*
X147941550Y-107422751D01*
X148298693Y-106922751D02*
X148298693Y-108208466D01*
X148227265Y-108351323D01*
X148084407Y-108422751D01*
X147941550Y-108422751D01*
X146870122Y-108351323D02*
X147012979Y-108422751D01*
X147298693Y-108422751D01*
X147441550Y-108351323D01*
X147512979Y-108208466D01*
X147512979Y-107637037D01*
X147441550Y-107494180D01*
X147298693Y-107422751D01*
X147012979Y-107422751D01*
X146870122Y-107494180D01*
X146798693Y-107637037D01*
X146798693Y-107779894D01*
X147512979Y-107922751D01*
X146155836Y-108422751D02*
X146155836Y-107422751D01*
X146155836Y-107708466D02*
X146084408Y-107565609D01*
X146012979Y-107494180D01*
X145870122Y-107422751D01*
X145727265Y-107422751D01*
X145441551Y-107422751D02*
X144870122Y-107422751D01*
X145227265Y-108422751D02*
X145227265Y-107137037D01*
X145155837Y-106994180D01*
X145012979Y-106922751D01*
X144870122Y-106922751D01*
X143727265Y-108422751D02*
X143727265Y-107637037D01*
X143798694Y-107494180D01*
X143941551Y-107422751D01*
X144227265Y-107422751D01*
X144370122Y-107494180D01*
X143727265Y-108351323D02*
X143870122Y-108422751D01*
X144227265Y-108422751D01*
X144370122Y-108351323D01*
X144441551Y-108208466D01*
X144441551Y-108065609D01*
X144370122Y-107922751D01*
X144227265Y-107851323D01*
X143870122Y-107851323D01*
X143727265Y-107779894D01*
X142370122Y-108351323D02*
X142512979Y-108422751D01*
X142798693Y-108422751D01*
X142941551Y-108351323D01*
X143012979Y-108279894D01*
X143084408Y-108137037D01*
X143084408Y-107708466D01*
X143012979Y-107565609D01*
X142941551Y-107494180D01*
X142798693Y-107422751D01*
X142512979Y-107422751D01*
X142370122Y-107494180D01*
X141155837Y-108351323D02*
X141298694Y-108422751D01*
X141584408Y-108422751D01*
X141727265Y-108351323D01*
X141798694Y-108208466D01*
X141798694Y-107637037D01*
X141727265Y-107494180D01*
X141584408Y-107422751D01*
X141298694Y-107422751D01*
X141155837Y-107494180D01*
X141084408Y-107637037D01*
X141084408Y-107779894D01*
X141798694Y-107922751D01*
X154620124Y-110972751D02*
X154620124Y-109472751D01*
X154620124Y-110187037D02*
X153762981Y-110187037D01*
X153762981Y-110972751D02*
X153762981Y-109472751D01*
X152405838Y-110972751D02*
X152405838Y-110187037D01*
X152477267Y-110044180D01*
X152620124Y-109972751D01*
X152905838Y-109972751D01*
X153048695Y-110044180D01*
X152405838Y-110901323D02*
X152548695Y-110972751D01*
X152905838Y-110972751D01*
X153048695Y-110901323D01*
X153120124Y-110758466D01*
X153120124Y-110615609D01*
X153048695Y-110472751D01*
X152905838Y-110401323D01*
X152548695Y-110401323D01*
X152405838Y-110329894D01*
X151691552Y-109972751D02*
X151691552Y-110972751D01*
X151691552Y-110115609D02*
X151620124Y-110044180D01*
X151477266Y-109972751D01*
X151262981Y-109972751D01*
X151120124Y-110044180D01*
X151048695Y-110187037D01*
X151048695Y-110972751D01*
X150405838Y-110901323D02*
X150262981Y-110972751D01*
X149977266Y-110972751D01*
X149834409Y-110901323D01*
X149762981Y-110758466D01*
X149762981Y-110687037D01*
X149834409Y-110544180D01*
X149977266Y-110472751D01*
X150191552Y-110472751D01*
X150334409Y-110401323D01*
X150405838Y-110258466D01*
X150405838Y-110187037D01*
X150334409Y-110044180D01*
X150191552Y-109972751D01*
X149977266Y-109972751D01*
X149834409Y-110044180D01*
X148191552Y-110258466D02*
X148262980Y-110187037D01*
X148405837Y-110115609D01*
X148548695Y-110115609D01*
X148691552Y-110187037D01*
X148762980Y-110258466D01*
X148834409Y-110401323D01*
X148834409Y-110544180D01*
X148762980Y-110687037D01*
X148691552Y-110758466D01*
X148548695Y-110829894D01*
X148405837Y-110829894D01*
X148262980Y-110758466D01*
X148191552Y-110687037D01*
X148191552Y-110115609D02*
X148191552Y-110687037D01*
X148120123Y-110758466D01*
X148048695Y-110758466D01*
X147905837Y-110687037D01*
X147834409Y-110544180D01*
X147834409Y-110187037D01*
X147977266Y-109972751D01*
X148191552Y-109829894D01*
X148477266Y-109758466D01*
X148762980Y-109829894D01*
X148977266Y-109972751D01*
X149120123Y-110187037D01*
X149191552Y-110472751D01*
X149120123Y-110758466D01*
X148977266Y-110972751D01*
X148762980Y-111115609D01*
X148477266Y-111187037D01*
X148191552Y-111115609D01*
X147977266Y-110972751D01*
X146477266Y-110972751D02*
X147191552Y-110972751D01*
X147191552Y-109472751D01*
X145977266Y-110972751D02*
X145977266Y-109972751D01*
X145977266Y-109472751D02*
X146048695Y-109544180D01*
X145977266Y-109615609D01*
X145905838Y-109544180D01*
X145977266Y-109472751D01*
X145977266Y-109615609D01*
X145334409Y-110901323D02*
X145191552Y-110972751D01*
X144905837Y-110972751D01*
X144762980Y-110901323D01*
X144691552Y-110758466D01*
X144691552Y-110687037D01*
X144762980Y-110544180D01*
X144905837Y-110472751D01*
X145120123Y-110472751D01*
X145262980Y-110401323D01*
X145334409Y-110258466D01*
X145334409Y-110187037D01*
X145262980Y-110044180D01*
X145120123Y-109972751D01*
X144905837Y-109972751D01*
X144762980Y-110044180D01*
X144120123Y-110901323D02*
X143977266Y-110972751D01*
X143691551Y-110972751D01*
X143548694Y-110901323D01*
X143477266Y-110758466D01*
X143477266Y-110687037D01*
X143548694Y-110544180D01*
X143691551Y-110472751D01*
X143905837Y-110472751D01*
X144048694Y-110401323D01*
X144120123Y-110258466D01*
X144120123Y-110187037D01*
X144048694Y-110044180D01*
X143905837Y-109972751D01*
X143691551Y-109972751D01*
X143548694Y-110044180D01*
X142834408Y-110829894D02*
X142762980Y-110901323D01*
X142834408Y-110972751D01*
X142905837Y-110901323D01*
X142834408Y-110829894D01*
X142834408Y-110972751D01*
X142120122Y-109972751D02*
X142120122Y-111472751D01*
X142120122Y-110044180D02*
X141977265Y-109972751D01*
X141691551Y-109972751D01*
X141548694Y-110044180D01*
X141477265Y-110115609D01*
X141405836Y-110258466D01*
X141405836Y-110687037D01*
X141477265Y-110829894D01*
X141548694Y-110901323D01*
X141691551Y-110972751D01*
X141977265Y-110972751D01*
X142120122Y-110901323D01*
X140762979Y-109972751D02*
X140762979Y-111472751D01*
X140762979Y-110044180D02*
X140620122Y-109972751D01*
X140334408Y-109972751D01*
X140191551Y-110044180D01*
X140120122Y-110115609D01*
X140048693Y-110258466D01*
X140048693Y-110687037D01*
X140120122Y-110829894D01*
X140191551Y-110901323D01*
X140334408Y-110972751D01*
X140620122Y-110972751D01*
X140762979Y-110901323D01*
X139405836Y-110829894D02*
X139334408Y-110901323D01*
X139405836Y-110972751D01*
X139477265Y-110901323D01*
X139405836Y-110829894D01*
X139405836Y-110972751D01*
X138762979Y-110901323D02*
X138620122Y-110972751D01*
X138334407Y-110972751D01*
X138191550Y-110901323D01*
X138120122Y-110758466D01*
X138120122Y-110687037D01*
X138191550Y-110544180D01*
X138334407Y-110472751D01*
X138548693Y-110472751D01*
X138691550Y-110401323D01*
X138762979Y-110258466D01*
X138762979Y-110187037D01*
X138691550Y-110044180D01*
X138548693Y-109972751D01*
X138334407Y-109972751D01*
X138191550Y-110044180D01*
X136905836Y-110901323D02*
X137048693Y-110972751D01*
X137334407Y-110972751D01*
X137477264Y-110901323D01*
X137548693Y-110758466D01*
X137548693Y-110187037D01*
X137477264Y-110044180D01*
X137334407Y-109972751D01*
X137048693Y-109972751D01*
X136905836Y-110044180D01*
X136834407Y-110187037D01*
X136834407Y-110329894D01*
X137548693Y-110472751D01*
M02*
