%FSLAX45Y45*%
G04 Gerber Fmt 4.5, Leading zero omitted, Abs format (unit mm)*
G04 Created by KiCad (PCBNEW 4.0.7) date 07/15/18 12:38:28*
%MOMM*%
%LPD*%
G01*
G04 APERTURE LIST*
%ADD10C,0.127000*%
%ADD11C,0.150000*%
%ADD12C,0.200000*%
%ADD13C,0.300000*%
G04 APERTURE END LIST*
D10*
D11*
X13366496Y-11628628D02*
X13366496Y-9756648D01*
X15724632Y-11628628D02*
X13366496Y-11628628D01*
X15724632Y-9756648D02*
X15724632Y-11628628D01*
X13366496Y-9756648D02*
X15724632Y-9756648D01*
D12*
X14523024Y-10479344D02*
X14563024Y-10519344D01*
X14563024Y-10479344D02*
X14523024Y-10519344D01*
X14539280Y-10182672D02*
X14579280Y-10222672D01*
X14579280Y-10182672D02*
X14539280Y-10222672D01*
X14945680Y-10983280D02*
X14985680Y-11023280D01*
X14985680Y-10983280D02*
X14945680Y-11023280D01*
X15043216Y-10550464D02*
X15083216Y-10590464D01*
X15083216Y-10550464D02*
X15043216Y-10590464D01*
X15117892Y-10466644D02*
X15157892Y-10506644D01*
X15157892Y-10466644D02*
X15117892Y-10506644D01*
X13824420Y-10528046D02*
G75*
G03X13824420Y-10528046I-50000J0D01*
G01*
X13824420Y-10782046D02*
G75*
G03X13824420Y-10782046I-50000J0D01*
G01*
X15361628Y-10341864D02*
G75*
G03X15361628Y-10341864I-50000J0D01*
G01*
X15361628Y-10595864D02*
G75*
G03X15361628Y-10595864I-50000J0D01*
G01*
X15361628Y-10849864D02*
G75*
G03X15361628Y-10849864I-50000J0D01*
G01*
D13*
X13630424Y-12101842D02*
X13630424Y-11801842D01*
X13701853Y-11801842D01*
X13744710Y-11816128D01*
X13773282Y-11844699D01*
X13787567Y-11873271D01*
X13801853Y-11930414D01*
X13801853Y-11973271D01*
X13787567Y-12030414D01*
X13773282Y-12058985D01*
X13744710Y-12087557D01*
X13701853Y-12101842D01*
X13630424Y-12101842D01*
X13930424Y-12101842D02*
X13930424Y-11901842D01*
X13930424Y-11958985D02*
X13944710Y-11930414D01*
X13958996Y-11916128D01*
X13987567Y-11901842D01*
X14016139Y-11901842D01*
X14116139Y-12101842D02*
X14116139Y-11901842D01*
X14116139Y-11801842D02*
X14101853Y-11816128D01*
X14116139Y-11830414D01*
X14130424Y-11816128D01*
X14116139Y-11801842D01*
X14116139Y-11830414D01*
X14301853Y-12101842D02*
X14273282Y-12087557D01*
X14258996Y-12058985D01*
X14258996Y-11801842D01*
X14458996Y-12101842D02*
X14430424Y-12087557D01*
X14416139Y-12058985D01*
X14416139Y-11801842D01*
X14801853Y-12101842D02*
X14801853Y-11801842D01*
X14901853Y-12016128D01*
X15001853Y-11801842D01*
X15001853Y-12101842D01*
X15273282Y-12101842D02*
X15273282Y-11944699D01*
X15258996Y-11916128D01*
X15230424Y-11901842D01*
X15173282Y-11901842D01*
X15144710Y-11916128D01*
X15273282Y-12087557D02*
X15244710Y-12101842D01*
X15173282Y-12101842D01*
X15144710Y-12087557D01*
X15130424Y-12058985D01*
X15130424Y-12030414D01*
X15144710Y-12001842D01*
X15173282Y-11987557D01*
X15244710Y-11987557D01*
X15273282Y-11973271D01*
X15416139Y-11901842D02*
X15416139Y-12201842D01*
X15416139Y-11916128D02*
X15444710Y-11901842D01*
X15501853Y-11901842D01*
X15530424Y-11916128D01*
X15544710Y-11930414D01*
X15558996Y-11958985D01*
X15558996Y-12044699D01*
X15544710Y-12073271D01*
X15530424Y-12087557D01*
X15501853Y-12101842D01*
X15444710Y-12101842D01*
X15416139Y-12087557D01*
X15687567Y-12073271D02*
X15701853Y-12087557D01*
X15687567Y-12101842D01*
X15673282Y-12087557D01*
X15687567Y-12073271D01*
X15687567Y-12101842D01*
X15687567Y-11916128D02*
X15701853Y-11930414D01*
X15687567Y-11944699D01*
X15673282Y-11930414D01*
X15687567Y-11916128D01*
X15687567Y-11944699D01*
X13318996Y-12576128D02*
X13358996Y-12616128D01*
X13358996Y-12576128D02*
X13318996Y-12616128D01*
X13687567Y-12431842D02*
X13716139Y-12431842D01*
X13744710Y-12446128D01*
X13758996Y-12460414D01*
X13773282Y-12488985D01*
X13787567Y-12546128D01*
X13787567Y-12617557D01*
X13773282Y-12674699D01*
X13758996Y-12703271D01*
X13744710Y-12717557D01*
X13716139Y-12731842D01*
X13687567Y-12731842D01*
X13658996Y-12717557D01*
X13644710Y-12703271D01*
X13630424Y-12674699D01*
X13616139Y-12617557D01*
X13616139Y-12546128D01*
X13630424Y-12488985D01*
X13644710Y-12460414D01*
X13658996Y-12446128D01*
X13687567Y-12431842D01*
X13916139Y-12703271D02*
X13930424Y-12717557D01*
X13916139Y-12731842D01*
X13901853Y-12717557D01*
X13916139Y-12703271D01*
X13916139Y-12731842D01*
X14187567Y-12531842D02*
X14187567Y-12731842D01*
X14116139Y-12417557D02*
X14044710Y-12631842D01*
X14230424Y-12631842D01*
X14401853Y-12431842D02*
X14430424Y-12431842D01*
X14458996Y-12446128D01*
X14473282Y-12460414D01*
X14487567Y-12488985D01*
X14501853Y-12546128D01*
X14501853Y-12617557D01*
X14487567Y-12674699D01*
X14473282Y-12703271D01*
X14458996Y-12717557D01*
X14430424Y-12731842D01*
X14401853Y-12731842D01*
X14373282Y-12717557D01*
X14358996Y-12703271D01*
X14344710Y-12674699D01*
X14330424Y-12617557D01*
X14330424Y-12546128D01*
X14344710Y-12488985D01*
X14358996Y-12460414D01*
X14373282Y-12446128D01*
X14401853Y-12431842D01*
X14630424Y-12731842D02*
X14630424Y-12531842D01*
X14630424Y-12560414D02*
X14644710Y-12546128D01*
X14673282Y-12531842D01*
X14716139Y-12531842D01*
X14744710Y-12546128D01*
X14758996Y-12574699D01*
X14758996Y-12731842D01*
X14758996Y-12574699D02*
X14773282Y-12546128D01*
X14801853Y-12531842D01*
X14844710Y-12531842D01*
X14873282Y-12546128D01*
X14887567Y-12574699D01*
X14887567Y-12731842D01*
X15030424Y-12731842D02*
X15030424Y-12531842D01*
X15030424Y-12560414D02*
X15044710Y-12546128D01*
X15073282Y-12531842D01*
X15116139Y-12531842D01*
X15144710Y-12546128D01*
X15158996Y-12574699D01*
X15158996Y-12731842D01*
X15158996Y-12574699D02*
X15173282Y-12546128D01*
X15201853Y-12531842D01*
X15244710Y-12531842D01*
X15273282Y-12546128D01*
X15287567Y-12574699D01*
X15287567Y-12731842D01*
X15873282Y-12417557D02*
X15616139Y-12803271D01*
X16258996Y-12431842D02*
X16287567Y-12431842D01*
X16316139Y-12446128D01*
X16330424Y-12460414D01*
X16344710Y-12488985D01*
X16358996Y-12546128D01*
X16358996Y-12617557D01*
X16344710Y-12674699D01*
X16330424Y-12703271D01*
X16316139Y-12717557D01*
X16287567Y-12731842D01*
X16258996Y-12731842D01*
X16230424Y-12717557D01*
X16216139Y-12703271D01*
X16201853Y-12674699D01*
X16187567Y-12617557D01*
X16187567Y-12546128D01*
X16201853Y-12488985D01*
X16216139Y-12460414D01*
X16230424Y-12446128D01*
X16258996Y-12431842D01*
X16487567Y-12703271D02*
X16501853Y-12717557D01*
X16487567Y-12731842D01*
X16473282Y-12717557D01*
X16487567Y-12703271D01*
X16487567Y-12731842D01*
X16687567Y-12431842D02*
X16716139Y-12431842D01*
X16744710Y-12446128D01*
X16758996Y-12460414D01*
X16773281Y-12488985D01*
X16787567Y-12546128D01*
X16787567Y-12617557D01*
X16773281Y-12674699D01*
X16758996Y-12703271D01*
X16744710Y-12717557D01*
X16716139Y-12731842D01*
X16687567Y-12731842D01*
X16658996Y-12717557D01*
X16644710Y-12703271D01*
X16630424Y-12674699D01*
X16616139Y-12617557D01*
X16616139Y-12546128D01*
X16630424Y-12488985D01*
X16644710Y-12460414D01*
X16658996Y-12446128D01*
X16687567Y-12431842D01*
X17073282Y-12731842D02*
X16901853Y-12731842D01*
X16987567Y-12731842D02*
X16987567Y-12431842D01*
X16958996Y-12474699D01*
X16930424Y-12503271D01*
X16901853Y-12517557D01*
X17330424Y-12431842D02*
X17273282Y-12431842D01*
X17244710Y-12446128D01*
X17230424Y-12460414D01*
X17201853Y-12503271D01*
X17187567Y-12560414D01*
X17187567Y-12674699D01*
X17201853Y-12703271D01*
X17216139Y-12717557D01*
X17244710Y-12731842D01*
X17301853Y-12731842D01*
X17330424Y-12717557D01*
X17344710Y-12703271D01*
X17358996Y-12674699D01*
X17358996Y-12603271D01*
X17344710Y-12574699D01*
X17330424Y-12560414D01*
X17301853Y-12546128D01*
X17244710Y-12546128D01*
X17216139Y-12560414D01*
X17201853Y-12574699D01*
X17187567Y-12603271D01*
X17473282Y-12431842D02*
X17473282Y-12488985D01*
X17587567Y-12431842D02*
X17587567Y-12488985D01*
X18030424Y-12846128D02*
X18016139Y-12831842D01*
X17987567Y-12788985D01*
X17973282Y-12760414D01*
X17958996Y-12717557D01*
X17944710Y-12646128D01*
X17944710Y-12588985D01*
X17958996Y-12517557D01*
X17973282Y-12474699D01*
X17987567Y-12446128D01*
X18016139Y-12403271D01*
X18030424Y-12388985D01*
X18287567Y-12431842D02*
X18144710Y-12431842D01*
X18130424Y-12574699D01*
X18144710Y-12560414D01*
X18173282Y-12546128D01*
X18244710Y-12546128D01*
X18273282Y-12560414D01*
X18287567Y-12574699D01*
X18301853Y-12603271D01*
X18301853Y-12674699D01*
X18287567Y-12703271D01*
X18273282Y-12717557D01*
X18244710Y-12731842D01*
X18173282Y-12731842D01*
X18144710Y-12717557D01*
X18130424Y-12703271D01*
X18658996Y-12731842D02*
X18658996Y-12431842D01*
X18787567Y-12731842D02*
X18787567Y-12574699D01*
X18773282Y-12546128D01*
X18744710Y-12531842D01*
X18701853Y-12531842D01*
X18673282Y-12546128D01*
X18658996Y-12560414D01*
X18973282Y-12731842D02*
X18944710Y-12717557D01*
X18930424Y-12703271D01*
X18916139Y-12674699D01*
X18916139Y-12588985D01*
X18930424Y-12560414D01*
X18944710Y-12546128D01*
X18973282Y-12531842D01*
X19016139Y-12531842D01*
X19044710Y-12546128D01*
X19058996Y-12560414D01*
X19073282Y-12588985D01*
X19073282Y-12674699D01*
X19058996Y-12703271D01*
X19044710Y-12717557D01*
X19016139Y-12731842D01*
X18973282Y-12731842D01*
X19244710Y-12731842D02*
X19216139Y-12717557D01*
X19201853Y-12688985D01*
X19201853Y-12431842D01*
X19473282Y-12717557D02*
X19444710Y-12731842D01*
X19387567Y-12731842D01*
X19358996Y-12717557D01*
X19344710Y-12688985D01*
X19344710Y-12574699D01*
X19358996Y-12546128D01*
X19387567Y-12531842D01*
X19444710Y-12531842D01*
X19473282Y-12546128D01*
X19487567Y-12574699D01*
X19487567Y-12603271D01*
X19344710Y-12631842D01*
X19601853Y-12717557D02*
X19630425Y-12731842D01*
X19687567Y-12731842D01*
X19716139Y-12717557D01*
X19730425Y-12688985D01*
X19730425Y-12674699D01*
X19716139Y-12646128D01*
X19687567Y-12631842D01*
X19644710Y-12631842D01*
X19616139Y-12617557D01*
X19601853Y-12588985D01*
X19601853Y-12574699D01*
X19616139Y-12546128D01*
X19644710Y-12531842D01*
X19687567Y-12531842D01*
X19716139Y-12546128D01*
X19830424Y-12846128D02*
X19844710Y-12831842D01*
X19873282Y-12788985D01*
X19887567Y-12760414D01*
X19901853Y-12717557D01*
X19916139Y-12646128D01*
X19916139Y-12588985D01*
X19901853Y-12517557D01*
X19887567Y-12474699D01*
X19873282Y-12446128D01*
X19844710Y-12403271D01*
X19830424Y-12388985D01*
X13358996Y-12992128D02*
G75*
G03X13358996Y-12992128I-50000J0D01*
G01*
X13787567Y-13127842D02*
X13616139Y-13127842D01*
X13701853Y-13127842D02*
X13701853Y-12827842D01*
X13673282Y-12870699D01*
X13644710Y-12899271D01*
X13616139Y-12913557D01*
X13916139Y-13099271D02*
X13930424Y-13113557D01*
X13916139Y-13127842D01*
X13901853Y-13113557D01*
X13916139Y-13099271D01*
X13916139Y-13127842D01*
X14116139Y-12827842D02*
X14144710Y-12827842D01*
X14173282Y-12842128D01*
X14187567Y-12856414D01*
X14201853Y-12884985D01*
X14216139Y-12942128D01*
X14216139Y-13013557D01*
X14201853Y-13070699D01*
X14187567Y-13099271D01*
X14173282Y-13113557D01*
X14144710Y-13127842D01*
X14116139Y-13127842D01*
X14087567Y-13113557D01*
X14073282Y-13099271D01*
X14058996Y-13070699D01*
X14044710Y-13013557D01*
X14044710Y-12942128D01*
X14058996Y-12884985D01*
X14073282Y-12856414D01*
X14087567Y-12842128D01*
X14116139Y-12827842D01*
X14401853Y-12827842D02*
X14430424Y-12827842D01*
X14458996Y-12842128D01*
X14473282Y-12856414D01*
X14487567Y-12884985D01*
X14501853Y-12942128D01*
X14501853Y-13013557D01*
X14487567Y-13070699D01*
X14473282Y-13099271D01*
X14458996Y-13113557D01*
X14430424Y-13127842D01*
X14401853Y-13127842D01*
X14373282Y-13113557D01*
X14358996Y-13099271D01*
X14344710Y-13070699D01*
X14330424Y-13013557D01*
X14330424Y-12942128D01*
X14344710Y-12884985D01*
X14358996Y-12856414D01*
X14373282Y-12842128D01*
X14401853Y-12827842D01*
X14630424Y-13127842D02*
X14630424Y-12927842D01*
X14630424Y-12956414D02*
X14644710Y-12942128D01*
X14673282Y-12927842D01*
X14716139Y-12927842D01*
X14744710Y-12942128D01*
X14758996Y-12970699D01*
X14758996Y-13127842D01*
X14758996Y-12970699D02*
X14773282Y-12942128D01*
X14801853Y-12927842D01*
X14844710Y-12927842D01*
X14873282Y-12942128D01*
X14887567Y-12970699D01*
X14887567Y-13127842D01*
X15030424Y-13127842D02*
X15030424Y-12927842D01*
X15030424Y-12956414D02*
X15044710Y-12942128D01*
X15073282Y-12927842D01*
X15116139Y-12927842D01*
X15144710Y-12942128D01*
X15158996Y-12970699D01*
X15158996Y-13127842D01*
X15158996Y-12970699D02*
X15173282Y-12942128D01*
X15201853Y-12927842D01*
X15244710Y-12927842D01*
X15273282Y-12942128D01*
X15287567Y-12970699D01*
X15287567Y-13127842D01*
X15873282Y-12813557D02*
X15616139Y-13199271D01*
X16258996Y-12827842D02*
X16287567Y-12827842D01*
X16316139Y-12842128D01*
X16330424Y-12856414D01*
X16344710Y-12884985D01*
X16358996Y-12942128D01*
X16358996Y-13013557D01*
X16344710Y-13070699D01*
X16330424Y-13099271D01*
X16316139Y-13113557D01*
X16287567Y-13127842D01*
X16258996Y-13127842D01*
X16230424Y-13113557D01*
X16216139Y-13099271D01*
X16201853Y-13070699D01*
X16187567Y-13013557D01*
X16187567Y-12942128D01*
X16201853Y-12884985D01*
X16216139Y-12856414D01*
X16230424Y-12842128D01*
X16258996Y-12827842D01*
X16487567Y-13099271D02*
X16501853Y-13113557D01*
X16487567Y-13127842D01*
X16473282Y-13113557D01*
X16487567Y-13099271D01*
X16487567Y-13127842D01*
X16687567Y-12827842D02*
X16716139Y-12827842D01*
X16744710Y-12842128D01*
X16758996Y-12856414D01*
X16773281Y-12884985D01*
X16787567Y-12942128D01*
X16787567Y-13013557D01*
X16773281Y-13070699D01*
X16758996Y-13099271D01*
X16744710Y-13113557D01*
X16716139Y-13127842D01*
X16687567Y-13127842D01*
X16658996Y-13113557D01*
X16644710Y-13099271D01*
X16630424Y-13070699D01*
X16616139Y-13013557D01*
X16616139Y-12942128D01*
X16630424Y-12884985D01*
X16644710Y-12856414D01*
X16658996Y-12842128D01*
X16687567Y-12827842D01*
X16887567Y-12827842D02*
X17073282Y-12827842D01*
X16973282Y-12942128D01*
X17016139Y-12942128D01*
X17044710Y-12956414D01*
X17058996Y-12970699D01*
X17073282Y-12999271D01*
X17073282Y-13070699D01*
X17058996Y-13099271D01*
X17044710Y-13113557D01*
X17016139Y-13127842D01*
X16930424Y-13127842D01*
X16901853Y-13113557D01*
X16887567Y-13099271D01*
X17216139Y-13127842D02*
X17273282Y-13127842D01*
X17301853Y-13113557D01*
X17316139Y-13099271D01*
X17344710Y-13056414D01*
X17358996Y-12999271D01*
X17358996Y-12884985D01*
X17344710Y-12856414D01*
X17330424Y-12842128D01*
X17301853Y-12827842D01*
X17244710Y-12827842D01*
X17216139Y-12842128D01*
X17201853Y-12856414D01*
X17187567Y-12884985D01*
X17187567Y-12956414D01*
X17201853Y-12984985D01*
X17216139Y-12999271D01*
X17244710Y-13013557D01*
X17301853Y-13013557D01*
X17330424Y-12999271D01*
X17344710Y-12984985D01*
X17358996Y-12956414D01*
X17473282Y-12827842D02*
X17473282Y-12884985D01*
X17587567Y-12827842D02*
X17587567Y-12884985D01*
X18030424Y-13242128D02*
X18016139Y-13227842D01*
X17987567Y-13184985D01*
X17973282Y-13156414D01*
X17958996Y-13113557D01*
X17944710Y-13042128D01*
X17944710Y-12984985D01*
X17958996Y-12913557D01*
X17973282Y-12870699D01*
X17987567Y-12842128D01*
X18016139Y-12799271D01*
X18030424Y-12784985D01*
X18287567Y-12827842D02*
X18144710Y-12827842D01*
X18130424Y-12970699D01*
X18144710Y-12956414D01*
X18173282Y-12942128D01*
X18244710Y-12942128D01*
X18273282Y-12956414D01*
X18287567Y-12970699D01*
X18301853Y-12999271D01*
X18301853Y-13070699D01*
X18287567Y-13099271D01*
X18273282Y-13113557D01*
X18244710Y-13127842D01*
X18173282Y-13127842D01*
X18144710Y-13113557D01*
X18130424Y-13099271D01*
X18658996Y-13127842D02*
X18658996Y-12827842D01*
X18787567Y-13127842D02*
X18787567Y-12970699D01*
X18773282Y-12942128D01*
X18744710Y-12927842D01*
X18701853Y-12927842D01*
X18673282Y-12942128D01*
X18658996Y-12956414D01*
X18973282Y-13127842D02*
X18944710Y-13113557D01*
X18930424Y-13099271D01*
X18916139Y-13070699D01*
X18916139Y-12984985D01*
X18930424Y-12956414D01*
X18944710Y-12942128D01*
X18973282Y-12927842D01*
X19016139Y-12927842D01*
X19044710Y-12942128D01*
X19058996Y-12956414D01*
X19073282Y-12984985D01*
X19073282Y-13070699D01*
X19058996Y-13099271D01*
X19044710Y-13113557D01*
X19016139Y-13127842D01*
X18973282Y-13127842D01*
X19244710Y-13127842D02*
X19216139Y-13113557D01*
X19201853Y-13084985D01*
X19201853Y-12827842D01*
X19473282Y-13113557D02*
X19444710Y-13127842D01*
X19387567Y-13127842D01*
X19358996Y-13113557D01*
X19344710Y-13084985D01*
X19344710Y-12970699D01*
X19358996Y-12942128D01*
X19387567Y-12927842D01*
X19444710Y-12927842D01*
X19473282Y-12942128D01*
X19487567Y-12970699D01*
X19487567Y-12999271D01*
X19344710Y-13027842D01*
X19601853Y-13113557D02*
X19630425Y-13127842D01*
X19687567Y-13127842D01*
X19716139Y-13113557D01*
X19730425Y-13084985D01*
X19730425Y-13070699D01*
X19716139Y-13042128D01*
X19687567Y-13027842D01*
X19644710Y-13027842D01*
X19616139Y-13013557D01*
X19601853Y-12984985D01*
X19601853Y-12970699D01*
X19616139Y-12942128D01*
X19644710Y-12927842D01*
X19687567Y-12927842D01*
X19716139Y-12942128D01*
X19830424Y-13242128D02*
X19844710Y-13227842D01*
X19873282Y-13184985D01*
X19887567Y-13156414D01*
X19901853Y-13113557D01*
X19916139Y-13042128D01*
X19916139Y-12984985D01*
X19901853Y-12913557D01*
X19887567Y-12870699D01*
X19873282Y-12842128D01*
X19844710Y-12799271D01*
X19830424Y-12784985D01*
M02*
