G04 #@! TF.FileFunction,Other,Fab,Top*
%FSLAX46Y46*%
G04 Gerber Fmt 4.6, Leading zero omitted, Abs format (unit mm)*
G04 Created by KiCad (PCBNEW 4.0.7) date 07/15/18 12:38:24*
%MOMM*%
%LPD*%
G01*
G04 APERTURE LIST*
%ADD10C,0.100000*%
%ADD11C,0.150000*%
%ADD12C,0.075000*%
G04 APERTURE END LIST*
D10*
X139686080Y-108211520D02*
X139686080Y-106611520D01*
X139686080Y-106611520D02*
X140486080Y-106611520D01*
X140486080Y-106611520D02*
X140486080Y-108211520D01*
X140486080Y-108211520D02*
X139686080Y-108211520D01*
X143364000Y-108170880D02*
X143364000Y-106570880D01*
X143364000Y-106570880D02*
X144164000Y-106570880D01*
X144164000Y-106570880D02*
X144164000Y-108170880D01*
X144164000Y-108170880D02*
X143364000Y-108170880D01*
X148056500Y-110679180D02*
X146456500Y-110679180D01*
X146456500Y-110679180D02*
X146456500Y-109879180D01*
X146456500Y-109879180D02*
X148056500Y-109879180D01*
X148056500Y-109879180D02*
X148056500Y-110679180D01*
X140236040Y-111212360D02*
X141836040Y-111212360D01*
X141836040Y-111212360D02*
X141836040Y-114512360D01*
X141836040Y-114512360D02*
X140236040Y-114512360D01*
X140236040Y-114512360D02*
X140236040Y-111212360D01*
X141036040Y-112612360D02*
X141036040Y-112112360D01*
X141436040Y-112612360D02*
X141036040Y-113212360D01*
X140636040Y-112612360D02*
X141436040Y-112612360D01*
X141036040Y-113212360D02*
X140636040Y-112612360D01*
X141036040Y-113212360D02*
X141586040Y-113212360D01*
X141036040Y-113212360D02*
X140486040Y-113212360D01*
X141036040Y-113612360D02*
X141036040Y-113212360D01*
X144660520Y-114471720D02*
X143060520Y-114471720D01*
X143060520Y-114471720D02*
X143060520Y-111171720D01*
X143060520Y-111171720D02*
X144660520Y-111171720D01*
X144660520Y-111171720D02*
X144660520Y-114471720D01*
X143860520Y-113071720D02*
X143860520Y-113571720D01*
X143460520Y-113071720D02*
X143860520Y-112471720D01*
X144260520Y-113071720D02*
X143460520Y-113071720D01*
X143860520Y-112471720D02*
X144260520Y-113071720D01*
X143860520Y-112471720D02*
X143310520Y-112471720D01*
X143860520Y-112471720D02*
X144410520Y-112471720D01*
X143860520Y-112071720D02*
X143860520Y-112471720D01*
X135609200Y-109090460D02*
X133704200Y-109090460D01*
X133704200Y-109090460D02*
X133704200Y-104010460D01*
X133704200Y-104010460D02*
X136244200Y-104010460D01*
X136244200Y-104010460D02*
X136244200Y-108455460D01*
X136244200Y-108455460D02*
X135609200Y-109090460D01*
X138064200Y-108140460D02*
X136244200Y-108140460D01*
X138064200Y-108140460D02*
X138064200Y-107500460D01*
X138064200Y-107500460D02*
X136244200Y-107500460D01*
X133704200Y-108140460D02*
X127704200Y-108140460D01*
X127704200Y-108140460D02*
X127704200Y-107500460D01*
X133704200Y-107500460D02*
X127704200Y-107500460D01*
X138064200Y-105600460D02*
X136244200Y-105600460D01*
X138064200Y-105600460D02*
X138064200Y-104960460D01*
X138064200Y-104960460D02*
X136244200Y-104960460D01*
X133704200Y-105600460D02*
X127704200Y-105600460D01*
X127704200Y-105600460D02*
X127704200Y-104960460D01*
X133704200Y-104960460D02*
X127704200Y-104960460D01*
X155251280Y-102148640D02*
X157156280Y-102148640D01*
X157156280Y-102148640D02*
X157156280Y-109768640D01*
X157156280Y-109768640D02*
X154616280Y-109768640D01*
X154616280Y-109768640D02*
X154616280Y-102783640D01*
X154616280Y-102783640D02*
X155251280Y-102148640D01*
X152796280Y-103098640D02*
X154616280Y-103098640D01*
X152796280Y-103098640D02*
X152796280Y-103738640D01*
X152796280Y-103738640D02*
X154616280Y-103738640D01*
X157156280Y-103098640D02*
X163156280Y-103098640D01*
X163156280Y-103098640D02*
X163156280Y-103738640D01*
X157156280Y-103738640D02*
X163156280Y-103738640D01*
X152796280Y-105638640D02*
X154616280Y-105638640D01*
X152796280Y-105638640D02*
X152796280Y-106278640D01*
X152796280Y-106278640D02*
X154616280Y-106278640D01*
X157156280Y-105638640D02*
X163156280Y-105638640D01*
X163156280Y-105638640D02*
X163156280Y-106278640D01*
X157156280Y-106278640D02*
X163156280Y-106278640D01*
X152796280Y-108178640D02*
X154616280Y-108178640D01*
X152796280Y-108178640D02*
X152796280Y-108818640D01*
X152796280Y-108818640D02*
X154616280Y-108818640D01*
X157156280Y-108178640D02*
X163156280Y-108178640D01*
X163156280Y-108178640D02*
X163156280Y-108818640D01*
X157156280Y-108818640D02*
X163156280Y-108818640D01*
X141555520Y-106692800D02*
X142355520Y-106692800D01*
X141555520Y-108292800D02*
X141555520Y-106692800D01*
X142355520Y-108292800D02*
X141555520Y-108292800D01*
X142355520Y-106692800D02*
X142355520Y-108292800D01*
X145850560Y-108211520D02*
X145050560Y-108211520D01*
X145850560Y-106611520D02*
X145850560Y-108211520D01*
X145050560Y-106611520D02*
X145850560Y-106611520D01*
X145050560Y-108211520D02*
X145050560Y-106611520D01*
X147659040Y-108231840D02*
X146859040Y-108231840D01*
X147659040Y-106631840D02*
X147659040Y-108231840D01*
X146859040Y-106631840D02*
X147659040Y-106631840D01*
X146859040Y-108231840D02*
X146859040Y-106631840D01*
X148667520Y-106611520D02*
X149467520Y-106611520D01*
X148667520Y-108211520D02*
X148667520Y-106611520D01*
X149467520Y-108211520D02*
X148667520Y-108211520D01*
X149467520Y-106611520D02*
X149467520Y-108211520D01*
D11*
X142444200Y-98246000D02*
X146744200Y-98246000D01*
X146744200Y-98246000D02*
X146744200Y-104446000D01*
X146744200Y-104446000D02*
X141444200Y-104446000D01*
X141444200Y-104446000D02*
X141444200Y-99246000D01*
X141444200Y-99246000D02*
X142444200Y-98246000D01*
X141133699Y-109054377D02*
X141086080Y-109006758D01*
X141038461Y-108911520D01*
X141038461Y-108673424D01*
X141086080Y-108578186D01*
X141133699Y-108530567D01*
X141228937Y-108482948D01*
X141324175Y-108482948D01*
X141467032Y-108530567D01*
X142038461Y-109101996D01*
X142038461Y-108482948D01*
X141133699Y-108101996D02*
X141086080Y-108054377D01*
X141038461Y-107959139D01*
X141038461Y-107721043D01*
X141086080Y-107625805D01*
X141133699Y-107578186D01*
X141228937Y-107530567D01*
X141324175Y-107530567D01*
X141467032Y-107578186D01*
X142038461Y-108149615D01*
X142038461Y-107530567D01*
X141371794Y-107101996D02*
X142038461Y-107101996D01*
X141467032Y-107101996D02*
X141419413Y-107054377D01*
X141371794Y-106959139D01*
X141371794Y-106816281D01*
X141419413Y-106721043D01*
X141514651Y-106673424D01*
X142038461Y-106673424D01*
X141514651Y-105863900D02*
X141514651Y-106197234D01*
X142038461Y-106197234D02*
X141038461Y-106197234D01*
X141038461Y-105721043D01*
D12*
X140193223Y-107461520D02*
X140207509Y-107475806D01*
X140221794Y-107518663D01*
X140221794Y-107547234D01*
X140207509Y-107590091D01*
X140178937Y-107618663D01*
X140150366Y-107632948D01*
X140093223Y-107647234D01*
X140050366Y-107647234D01*
X139993223Y-107632948D01*
X139964651Y-107618663D01*
X139936080Y-107590091D01*
X139921794Y-107547234D01*
X139921794Y-107518663D01*
X139936080Y-107475806D01*
X139950366Y-107461520D01*
X140221794Y-107175806D02*
X140221794Y-107347234D01*
X140221794Y-107261520D02*
X139921794Y-107261520D01*
X139964651Y-107290091D01*
X139993223Y-107318663D01*
X140007509Y-107347234D01*
D11*
X144811619Y-108585166D02*
X144764000Y-108537547D01*
X144716381Y-108442309D01*
X144716381Y-108204213D01*
X144764000Y-108108975D01*
X144811619Y-108061356D01*
X144906857Y-108013737D01*
X145002095Y-108013737D01*
X145144952Y-108061356D01*
X145716381Y-108632785D01*
X145716381Y-108013737D01*
X144811619Y-107632785D02*
X144764000Y-107585166D01*
X144716381Y-107489928D01*
X144716381Y-107251832D01*
X144764000Y-107156594D01*
X144811619Y-107108975D01*
X144906857Y-107061356D01*
X145002095Y-107061356D01*
X145144952Y-107108975D01*
X145716381Y-107680404D01*
X145716381Y-107061356D01*
X145049714Y-106632785D02*
X145716381Y-106632785D01*
X145144952Y-106632785D02*
X145097333Y-106585166D01*
X145049714Y-106489928D01*
X145049714Y-106347070D01*
X145097333Y-106251832D01*
X145192571Y-106204213D01*
X145716381Y-106204213D01*
D12*
X143871143Y-107420880D02*
X143885429Y-107435166D01*
X143899714Y-107478023D01*
X143899714Y-107506594D01*
X143885429Y-107549451D01*
X143856857Y-107578023D01*
X143828286Y-107592308D01*
X143771143Y-107606594D01*
X143728286Y-107606594D01*
X143671143Y-107592308D01*
X143642571Y-107578023D01*
X143614000Y-107549451D01*
X143599714Y-107506594D01*
X143599714Y-107478023D01*
X143614000Y-107435166D01*
X143628286Y-107420880D01*
X143628286Y-107306594D02*
X143614000Y-107292308D01*
X143599714Y-107263737D01*
X143599714Y-107192308D01*
X143614000Y-107163737D01*
X143628286Y-107149451D01*
X143656857Y-107135166D01*
X143685429Y-107135166D01*
X143728286Y-107149451D01*
X143899714Y-107320880D01*
X143899714Y-107135166D01*
D11*
X145994595Y-108231561D02*
X146613643Y-108231561D01*
X146280309Y-108612513D01*
X146423167Y-108612513D01*
X146518405Y-108660132D01*
X146566024Y-108707751D01*
X146613643Y-108802990D01*
X146613643Y-109041085D01*
X146566024Y-109136323D01*
X146518405Y-109183942D01*
X146423167Y-109231561D01*
X146137452Y-109231561D01*
X146042214Y-109183942D01*
X145994595Y-109136323D01*
X147042214Y-108564894D02*
X147042214Y-109564894D01*
X147042214Y-108612513D02*
X147137452Y-108564894D01*
X147327929Y-108564894D01*
X147423167Y-108612513D01*
X147470786Y-108660132D01*
X147518405Y-108755370D01*
X147518405Y-109041085D01*
X147470786Y-109136323D01*
X147423167Y-109183942D01*
X147327929Y-109231561D01*
X147137452Y-109231561D01*
X147042214Y-109183942D01*
X147851738Y-108231561D02*
X148470786Y-108231561D01*
X148137452Y-108612513D01*
X148280310Y-108612513D01*
X148375548Y-108660132D01*
X148423167Y-108707751D01*
X148470786Y-108802990D01*
X148470786Y-109041085D01*
X148423167Y-109136323D01*
X148375548Y-109183942D01*
X148280310Y-109231561D01*
X147994595Y-109231561D01*
X147899357Y-109183942D01*
X147851738Y-109136323D01*
D12*
X147206500Y-110386323D02*
X147192214Y-110400609D01*
X147149357Y-110414894D01*
X147120786Y-110414894D01*
X147077929Y-110400609D01*
X147049357Y-110372037D01*
X147035072Y-110343466D01*
X147020786Y-110286323D01*
X147020786Y-110243466D01*
X147035072Y-110186323D01*
X147049357Y-110157751D01*
X147077929Y-110129180D01*
X147120786Y-110114894D01*
X147149357Y-110114894D01*
X147192214Y-110129180D01*
X147206500Y-110143466D01*
X147306500Y-110114894D02*
X147492214Y-110114894D01*
X147392214Y-110229180D01*
X147435072Y-110229180D01*
X147463643Y-110243466D01*
X147477929Y-110257751D01*
X147492214Y-110286323D01*
X147492214Y-110357751D01*
X147477929Y-110386323D01*
X147463643Y-110400609D01*
X147435072Y-110414894D01*
X147349357Y-110414894D01*
X147320786Y-110400609D01*
X147306500Y-110386323D01*
D11*
X143238421Y-114124265D02*
X142238421Y-114124265D01*
X142238421Y-113886170D01*
X142286040Y-113743312D01*
X142381278Y-113648074D01*
X142476516Y-113600455D01*
X142666992Y-113552836D01*
X142809850Y-113552836D01*
X143000326Y-113600455D01*
X143095564Y-113648074D01*
X143190802Y-113743312D01*
X143238421Y-113886170D01*
X143238421Y-114124265D01*
X142238421Y-113124265D02*
X143047945Y-113124265D01*
X143143183Y-113076646D01*
X143190802Y-113029027D01*
X143238421Y-112933789D01*
X143238421Y-112743312D01*
X143190802Y-112648074D01*
X143143183Y-112600455D01*
X143047945Y-112552836D01*
X142238421Y-112552836D01*
X143190802Y-112124265D02*
X143238421Y-111981408D01*
X143238421Y-111743312D01*
X143190802Y-111648074D01*
X143143183Y-111600455D01*
X143047945Y-111552836D01*
X142952707Y-111552836D01*
X142857469Y-111600455D01*
X142809850Y-111648074D01*
X142762230Y-111743312D01*
X142714611Y-111933789D01*
X142666992Y-112029027D01*
X142619373Y-112076646D01*
X142524135Y-112124265D01*
X142428897Y-112124265D01*
X142333659Y-112076646D01*
X142286040Y-112029027D01*
X142238421Y-111933789D01*
X142238421Y-111695693D01*
X142286040Y-111552836D01*
X139488421Y-113600455D02*
X138488421Y-113600455D01*
X138488421Y-113362360D01*
X138536040Y-113219502D01*
X138631278Y-113124264D01*
X138726516Y-113076645D01*
X138916992Y-113029026D01*
X139059850Y-113029026D01*
X139250326Y-113076645D01*
X139345564Y-113124264D01*
X139440802Y-113219502D01*
X139488421Y-113362360D01*
X139488421Y-113600455D01*
X139488421Y-112076645D02*
X139488421Y-112648074D01*
X139488421Y-112362360D02*
X138488421Y-112362360D01*
X138631278Y-112457598D01*
X138726516Y-112552836D01*
X138774135Y-112648074D01*
X142562901Y-114083625D02*
X141562901Y-114083625D01*
X141562901Y-113845530D01*
X141610520Y-113702672D01*
X141705758Y-113607434D01*
X141800996Y-113559815D01*
X141991472Y-113512196D01*
X142134330Y-113512196D01*
X142324806Y-113559815D01*
X142420044Y-113607434D01*
X142515282Y-113702672D01*
X142562901Y-113845530D01*
X142562901Y-114083625D01*
X141562901Y-113083625D02*
X142372425Y-113083625D01*
X142467663Y-113036006D01*
X142515282Y-112988387D01*
X142562901Y-112893149D01*
X142562901Y-112702672D01*
X142515282Y-112607434D01*
X142467663Y-112559815D01*
X142372425Y-112512196D01*
X141562901Y-112512196D01*
X142515282Y-112083625D02*
X142562901Y-111940768D01*
X142562901Y-111702672D01*
X142515282Y-111607434D01*
X142467663Y-111559815D01*
X142372425Y-111512196D01*
X142277187Y-111512196D01*
X142181949Y-111559815D01*
X142134330Y-111607434D01*
X142086710Y-111702672D01*
X142039091Y-111893149D01*
X141991472Y-111988387D01*
X141943853Y-112036006D01*
X141848615Y-112083625D01*
X141753377Y-112083625D01*
X141658139Y-112036006D01*
X141610520Y-111988387D01*
X141562901Y-111893149D01*
X141562901Y-111655053D01*
X141610520Y-111512196D01*
X146312901Y-113559815D02*
X145312901Y-113559815D01*
X145312901Y-113321720D01*
X145360520Y-113178862D01*
X145455758Y-113083624D01*
X145550996Y-113036005D01*
X145741472Y-112988386D01*
X145884330Y-112988386D01*
X146074806Y-113036005D01*
X146170044Y-113083624D01*
X146265282Y-113178862D01*
X146312901Y-113321720D01*
X146312901Y-113559815D01*
X145408139Y-112607434D02*
X145360520Y-112559815D01*
X145312901Y-112464577D01*
X145312901Y-112226481D01*
X145360520Y-112131243D01*
X145408139Y-112083624D01*
X145503377Y-112036005D01*
X145598615Y-112036005D01*
X145741472Y-112083624D01*
X146312901Y-112655053D01*
X146312901Y-112036005D01*
X130454438Y-103177127D02*
X130930629Y-103177127D01*
X130359200Y-103462841D02*
X130692533Y-102462841D01*
X131025867Y-103462841D01*
X131787772Y-102796174D02*
X131787772Y-103462841D01*
X131359200Y-102796174D02*
X131359200Y-103319984D01*
X131406819Y-103415222D01*
X131502057Y-103462841D01*
X131644915Y-103462841D01*
X131740153Y-103415222D01*
X131787772Y-103367603D01*
X132692534Y-103462841D02*
X132692534Y-102462841D01*
X132692534Y-103415222D02*
X132597296Y-103462841D01*
X132406819Y-103462841D01*
X132311581Y-103415222D01*
X132263962Y-103367603D01*
X132216343Y-103272365D01*
X132216343Y-102986650D01*
X132263962Y-102891412D01*
X132311581Y-102843793D01*
X132406819Y-102796174D01*
X132597296Y-102796174D01*
X132692534Y-102843793D01*
X133168724Y-103462841D02*
X133168724Y-102796174D01*
X133168724Y-102462841D02*
X133121105Y-102510460D01*
X133168724Y-102558079D01*
X133216343Y-102510460D01*
X133168724Y-102462841D01*
X133168724Y-102558079D01*
X133787771Y-103462841D02*
X133692533Y-103415222D01*
X133644914Y-103367603D01*
X133597295Y-103272365D01*
X133597295Y-102986650D01*
X133644914Y-102891412D01*
X133692533Y-102843793D01*
X133787771Y-102796174D01*
X133930629Y-102796174D01*
X134025867Y-102843793D01*
X134073486Y-102891412D01*
X134121105Y-102986650D01*
X134121105Y-103272365D01*
X134073486Y-103367603D01*
X134025867Y-103415222D01*
X133930629Y-103462841D01*
X133787771Y-103462841D01*
X134311581Y-103558079D02*
X135073486Y-103558079D01*
X135311581Y-103462841D02*
X135311581Y-102796174D01*
X135311581Y-102462841D02*
X135263962Y-102510460D01*
X135311581Y-102558079D01*
X135359200Y-102510460D01*
X135311581Y-102462841D01*
X135311581Y-102558079D01*
X135787771Y-102796174D02*
X135787771Y-103462841D01*
X135787771Y-102891412D02*
X135835390Y-102843793D01*
X135930628Y-102796174D01*
X136073486Y-102796174D01*
X136168724Y-102843793D01*
X136216343Y-102939031D01*
X136216343Y-103462841D01*
X134426581Y-106883793D02*
X135140867Y-106883793D01*
X135283724Y-106931413D01*
X135378962Y-107026651D01*
X135426581Y-107169508D01*
X135426581Y-107264746D01*
X135426581Y-105883793D02*
X135426581Y-106455222D01*
X135426581Y-106169508D02*
X134426581Y-106169508D01*
X134569438Y-106264746D01*
X134664676Y-106359984D01*
X134712295Y-106455222D01*
X154858422Y-110221021D02*
X155429851Y-110221021D01*
X155144136Y-111221021D02*
X155144136Y-110221021D01*
X155620327Y-110221021D02*
X156191756Y-110221021D01*
X155906041Y-111221021D02*
X155906041Y-110221021D01*
X157001280Y-111221021D02*
X156525089Y-111221021D01*
X156525089Y-110221021D01*
X157096518Y-111316259D02*
X157858423Y-111316259D01*
X158239375Y-111221021D02*
X158144137Y-111173402D01*
X158096518Y-111125783D01*
X158048899Y-111030545D01*
X158048899Y-110744830D01*
X158096518Y-110649592D01*
X158144137Y-110601973D01*
X158239375Y-110554354D01*
X158382233Y-110554354D01*
X158477471Y-110601973D01*
X158525090Y-110649592D01*
X158572709Y-110744830D01*
X158572709Y-111030545D01*
X158525090Y-111125783D01*
X158477471Y-111173402D01*
X158382233Y-111221021D01*
X158239375Y-111221021D01*
X159429852Y-110554354D02*
X159429852Y-111221021D01*
X159001280Y-110554354D02*
X159001280Y-111078164D01*
X159048899Y-111173402D01*
X159144137Y-111221021D01*
X159286995Y-111221021D01*
X159382233Y-111173402D01*
X159429852Y-111125783D01*
X159763185Y-110554354D02*
X160144137Y-110554354D01*
X159906042Y-110221021D02*
X159906042Y-111078164D01*
X159953661Y-111173402D01*
X160048899Y-111221021D01*
X160144137Y-111221021D01*
X155338661Y-106291973D02*
X156052947Y-106291973D01*
X156195804Y-106339593D01*
X156291042Y-106434831D01*
X156338661Y-106577688D01*
X156338661Y-106672926D01*
X155433899Y-105863402D02*
X155386280Y-105815783D01*
X155338661Y-105720545D01*
X155338661Y-105482449D01*
X155386280Y-105387211D01*
X155433899Y-105339592D01*
X155529137Y-105291973D01*
X155624375Y-105291973D01*
X155767232Y-105339592D01*
X156338661Y-105911021D01*
X156338661Y-105291973D01*
X139907901Y-108611847D02*
X139907901Y-109088038D01*
X140384091Y-109135657D01*
X140336472Y-109088038D01*
X140288853Y-108992800D01*
X140288853Y-108754704D01*
X140336472Y-108659466D01*
X140384091Y-108611847D01*
X140479330Y-108564228D01*
X140717425Y-108564228D01*
X140812663Y-108611847D01*
X140860282Y-108659466D01*
X140907901Y-108754704D01*
X140907901Y-108992800D01*
X140860282Y-109088038D01*
X140812663Y-109135657D01*
X139907901Y-107707085D02*
X139907901Y-107897562D01*
X139955520Y-107992800D01*
X140003139Y-108040419D01*
X140145996Y-108135657D01*
X140336472Y-108183276D01*
X140717425Y-108183276D01*
X140812663Y-108135657D01*
X140860282Y-108088038D01*
X140907901Y-107992800D01*
X140907901Y-107802323D01*
X140860282Y-107707085D01*
X140812663Y-107659466D01*
X140717425Y-107611847D01*
X140479330Y-107611847D01*
X140384091Y-107659466D01*
X140336472Y-107707085D01*
X140288853Y-107802323D01*
X140288853Y-107992800D01*
X140336472Y-108088038D01*
X140384091Y-108135657D01*
X140479330Y-108183276D01*
X139907901Y-106992800D02*
X139907901Y-106897561D01*
X139955520Y-106802323D01*
X140003139Y-106754704D01*
X140098377Y-106707085D01*
X140288853Y-106659466D01*
X140526949Y-106659466D01*
X140717425Y-106707085D01*
X140812663Y-106754704D01*
X140860282Y-106802323D01*
X140907901Y-106897561D01*
X140907901Y-106992800D01*
X140860282Y-107088038D01*
X140812663Y-107135657D01*
X140717425Y-107183276D01*
X140526949Y-107230895D01*
X140288853Y-107230895D01*
X140098377Y-107183276D01*
X140003139Y-107135657D01*
X139955520Y-107088038D01*
X139907901Y-106992800D01*
X140907901Y-106230895D02*
X139907901Y-106230895D01*
X140526949Y-106135657D02*
X140907901Y-105849942D01*
X140241234Y-105849942D02*
X140622187Y-106230895D01*
D12*
X142136472Y-107559466D02*
X141945996Y-107692800D01*
X142136472Y-107788038D02*
X141736472Y-107788038D01*
X141736472Y-107635657D01*
X141755520Y-107597562D01*
X141774568Y-107578514D01*
X141812663Y-107559466D01*
X141869806Y-107559466D01*
X141907901Y-107578514D01*
X141926949Y-107597562D01*
X141945996Y-107635657D01*
X141945996Y-107788038D01*
X142136472Y-107178514D02*
X142136472Y-107407086D01*
X142136472Y-107292800D02*
X141736472Y-107292800D01*
X141793615Y-107330895D01*
X141831710Y-107368990D01*
X141850758Y-107407086D01*
D11*
X147402941Y-108173424D02*
X147402941Y-108744853D01*
X147402941Y-108459139D02*
X146402941Y-108459139D01*
X146545798Y-108554377D01*
X146641036Y-108649615D01*
X146688655Y-108744853D01*
X146402941Y-107554377D02*
X146402941Y-107459138D01*
X146450560Y-107363900D01*
X146498179Y-107316281D01*
X146593417Y-107268662D01*
X146783893Y-107221043D01*
X147021989Y-107221043D01*
X147212465Y-107268662D01*
X147307703Y-107316281D01*
X147355322Y-107363900D01*
X147402941Y-107459138D01*
X147402941Y-107554377D01*
X147355322Y-107649615D01*
X147307703Y-107697234D01*
X147212465Y-107744853D01*
X147021989Y-107792472D01*
X146783893Y-107792472D01*
X146593417Y-107744853D01*
X146498179Y-107697234D01*
X146450560Y-107649615D01*
X146402941Y-107554377D01*
X147402941Y-106792472D02*
X146402941Y-106792472D01*
X147117227Y-106459138D01*
X146402941Y-106125805D01*
X147402941Y-106125805D01*
D12*
X145631512Y-107478186D02*
X145441036Y-107611520D01*
X145631512Y-107706758D02*
X145231512Y-107706758D01*
X145231512Y-107554377D01*
X145250560Y-107516282D01*
X145269608Y-107497234D01*
X145307703Y-107478186D01*
X145364846Y-107478186D01*
X145402941Y-107497234D01*
X145421989Y-107516282D01*
X145441036Y-107554377D01*
X145441036Y-107706758D01*
X145269608Y-107325806D02*
X145250560Y-107306758D01*
X145231512Y-107268663D01*
X145231512Y-107173425D01*
X145250560Y-107135329D01*
X145269608Y-107116282D01*
X145307703Y-107097234D01*
X145345798Y-107097234D01*
X145402941Y-107116282D01*
X145631512Y-107344853D01*
X145631512Y-107097234D01*
D11*
X148306659Y-108598507D02*
X148259040Y-108550888D01*
X148211421Y-108455650D01*
X148211421Y-108217554D01*
X148259040Y-108122316D01*
X148306659Y-108074697D01*
X148401897Y-108027078D01*
X148497135Y-108027078D01*
X148639992Y-108074697D01*
X149211421Y-108646126D01*
X149211421Y-108027078D01*
X149211421Y-107598507D02*
X148211421Y-107598507D01*
X148830469Y-107503269D02*
X149211421Y-107217554D01*
X148544754Y-107217554D02*
X148925707Y-107598507D01*
X148306659Y-106836602D02*
X148259040Y-106788983D01*
X148211421Y-106693745D01*
X148211421Y-106455649D01*
X148259040Y-106360411D01*
X148306659Y-106312792D01*
X148401897Y-106265173D01*
X148497135Y-106265173D01*
X148639992Y-106312792D01*
X149211421Y-106884221D01*
X149211421Y-106265173D01*
D12*
X147439992Y-107498506D02*
X147249516Y-107631840D01*
X147439992Y-107727078D02*
X147039992Y-107727078D01*
X147039992Y-107574697D01*
X147059040Y-107536602D01*
X147078088Y-107517554D01*
X147116183Y-107498506D01*
X147173326Y-107498506D01*
X147211421Y-107517554D01*
X147230469Y-107536602D01*
X147249516Y-107574697D01*
X147249516Y-107727078D01*
X147039992Y-107365173D02*
X147039992Y-107117554D01*
X147192373Y-107250887D01*
X147192373Y-107193745D01*
X147211421Y-107155649D01*
X147230469Y-107136602D01*
X147268564Y-107117554D01*
X147363802Y-107117554D01*
X147401897Y-107136602D01*
X147420945Y-107155649D01*
X147439992Y-107193745D01*
X147439992Y-107308030D01*
X147420945Y-107346126D01*
X147401897Y-107365173D01*
D11*
X147115139Y-108578187D02*
X147067520Y-108530568D01*
X147019901Y-108435330D01*
X147019901Y-108197234D01*
X147067520Y-108101996D01*
X147115139Y-108054377D01*
X147210377Y-108006758D01*
X147305615Y-108006758D01*
X147448472Y-108054377D01*
X148019901Y-108625806D01*
X148019901Y-108006758D01*
X148019901Y-107578187D02*
X147019901Y-107578187D01*
X147638949Y-107482949D02*
X148019901Y-107197234D01*
X147353234Y-107197234D02*
X147734187Y-107578187D01*
X147115139Y-106816282D02*
X147067520Y-106768663D01*
X147019901Y-106673425D01*
X147019901Y-106435329D01*
X147067520Y-106340091D01*
X147115139Y-106292472D01*
X147210377Y-106244853D01*
X147305615Y-106244853D01*
X147448472Y-106292472D01*
X148019901Y-106863901D01*
X148019901Y-106244853D01*
D12*
X149248472Y-107478186D02*
X149057996Y-107611520D01*
X149248472Y-107706758D02*
X148848472Y-107706758D01*
X148848472Y-107554377D01*
X148867520Y-107516282D01*
X148886568Y-107497234D01*
X148924663Y-107478186D01*
X148981806Y-107478186D01*
X149019901Y-107497234D01*
X149038949Y-107516282D01*
X149057996Y-107554377D01*
X149057996Y-107706758D01*
X148981806Y-107135329D02*
X149248472Y-107135329D01*
X148829425Y-107230567D02*
X149115139Y-107325806D01*
X149115139Y-107078186D01*
D11*
X142070391Y-105833143D02*
X142022772Y-105880762D01*
X141879915Y-105928381D01*
X141784677Y-105928381D01*
X141641819Y-105880762D01*
X141546581Y-105785524D01*
X141498962Y-105690286D01*
X141451343Y-105499810D01*
X141451343Y-105356952D01*
X141498962Y-105166476D01*
X141546581Y-105071238D01*
X141641819Y-104976000D01*
X141784677Y-104928381D01*
X141879915Y-104928381D01*
X142022772Y-104976000D01*
X142070391Y-105023619D01*
X142451343Y-105642667D02*
X142927534Y-105642667D01*
X142356105Y-105928381D02*
X142689438Y-104928381D01*
X143022772Y-105928381D01*
X143260867Y-104928381D02*
X143879915Y-104928381D01*
X143546581Y-105309333D01*
X143689439Y-105309333D01*
X143784677Y-105356952D01*
X143832296Y-105404571D01*
X143879915Y-105499810D01*
X143879915Y-105737905D01*
X143832296Y-105833143D01*
X143784677Y-105880762D01*
X143689439Y-105928381D01*
X143403724Y-105928381D01*
X143308486Y-105880762D01*
X143260867Y-105833143D01*
X144832296Y-105928381D02*
X144260867Y-105928381D01*
X144546581Y-105928381D02*
X144546581Y-104928381D01*
X144451343Y-105071238D01*
X144356105Y-105166476D01*
X144260867Y-105214095D01*
X145165629Y-104928381D02*
X145784677Y-104928381D01*
X145451343Y-105309333D01*
X145594201Y-105309333D01*
X145689439Y-105356952D01*
X145737058Y-105404571D01*
X145784677Y-105499810D01*
X145784677Y-105737905D01*
X145737058Y-105833143D01*
X145689439Y-105880762D01*
X145594201Y-105928381D01*
X145308486Y-105928381D01*
X145213248Y-105880762D01*
X145165629Y-105833143D01*
X146403724Y-104928381D02*
X146498963Y-104928381D01*
X146594201Y-104976000D01*
X146641820Y-105023619D01*
X146689439Y-105118857D01*
X146737058Y-105309333D01*
X146737058Y-105547429D01*
X146689439Y-105737905D01*
X146641820Y-105833143D01*
X146594201Y-105880762D01*
X146498963Y-105928381D01*
X146403724Y-105928381D01*
X146308486Y-105880762D01*
X146260867Y-105833143D01*
X146213248Y-105737905D01*
X146165629Y-105547429D01*
X146165629Y-105309333D01*
X146213248Y-105118857D01*
X146260867Y-105023619D01*
X146308486Y-104976000D01*
X146403724Y-104928381D01*
X143332295Y-100798381D02*
X143332295Y-101607905D01*
X143379914Y-101703143D01*
X143427533Y-101750762D01*
X143522771Y-101798381D01*
X143713248Y-101798381D01*
X143808486Y-101750762D01*
X143856105Y-101703143D01*
X143903724Y-101607905D01*
X143903724Y-100798381D01*
X144903724Y-101798381D02*
X144332295Y-101798381D01*
X144618009Y-101798381D02*
X144618009Y-100798381D01*
X144522771Y-100941238D01*
X144427533Y-101036476D01*
X144332295Y-101084095D01*
M02*
